{"accessors" : [{"bufferView" : 0, "byteOffset" : 0, "componentType" : 5123, "count" : 18828, "type" : "SCALAR", "max" : [10475], "min" : [0]}, {"bufferView" : 1, "byteOffset" : 0, "componentType" : 5126, "count" : 10476, "type" : "VEC3", "max" : [10.2185363769531, 1.00273323059082, 14.3602237701416], "min" : [-9.59548950195313, -4.15986384607377E-14, 11.5893306732178]}, {"bufferView" : 1, "byteOffset" : 12, "componentType" : 5126, "count" : 10476, "type" : "VEC3", "max" : [1.00000441074371, 1.00000441074371, 1.00000441074371], "min" : [-1.00000441074371, -1.00000441074371, -1.00000441074371]}, {"bufferView" : 1, "byteOffset" : 24, "componentType" : 5126, "count" : 10476, "type" : "VEC2", "max" : [0, 0], "min" : [0, 0]}, {"bufferView" : 0, "byteOffset" : 37656, "componentType" : 5123, "count" : 18840, "type" : "SCALAR", "max" : [10370], "min" : [0]}, {"bufferView" : 2, "byteOffset" : 0, "componentType" : 5126, "count" : 10371, "type" : "VEC3", "max" : [-19.4315719604492, 0.754751205444336, 9.27530288696289], "min" : [-21.4895553588867, -4.29461266548969E-09, -9.41900634765625]}, {"bufferView" : 2, "byteOffset" : 12, "componentType" : 5126, "count" : 10371, "type" : "VEC3", "max" : [1.00000441074371, 1.00000441074371, 1.00000441074371], "min" : [-1.00000441074371, -1.00000441074371, -1.00000441074371]}, {"bufferView" : 2, "byteOffset" : 24, "componentType" : 5126, "count" : 10371, "type" : "VEC2", "max" : [0, 0], "min" : [0, 0]}, {"bufferView" : 0, "byteOffset" : 75336, "componentType" : 5123, "count" : 36, "type" : "SCALAR", "max" : [23], "min" : [0]}, {"bufferView" : 3, "byteOffset" : 0, "componentType" : 5126, "count" : 24, "type" : "VEC3", "max" : [0.80011785030365, 0.540519952774048, 0.499999940395355], "min" : [-0.80011785030365, 0.5, -0.499999940395355]}, {"bufferView" : 3, "byteOffset" : 12, "componentType" : 5126, "count" : 24, "type" : "VEC3", "max" : [1.00000441074371, 1.00000441074371, 1.00000441074371], "min" : [-1.00000441074371, -1.00000441074371, -1.00000441074371]}, {"bufferView" : 3, "byteOffset" : 24, "componentType" : 5126, "count" : 24, "type" : "VEC2", "max" : [0.625, 0.75], "min" : [0.375, 0.5]}, {"bufferView" : 0, "byteOffset" : 75408, "componentType" : 5123, "count" : 32592, "type" : "SCALAR", "max" : [17941], "min" : [0]}, {"bufferView" : 4, "byteOffset" : 0, "componentType" : 5126, "count" : 17942, "type" : "VEC3", "max" : [0.76947021484375, 0.263835906982422, -0.618461608886719], "min" : [-0.73040771484375, 0.226667404174805, -0.699111938476563]}, {"bufferView" : 4, "byteOffset" : 12, "componentType" : 5126, "count" : 17942, "type" : "VEC3", "max" : [1.00000441074371, 1.00000441074371, 1.00000441074371], "min" : [-1.00000441074371, -1.00000441074371, -1.00000441074371]}, {"bufferView" : 4, "byteOffset" : 24, "componentType" : 5126, "count" : 17942, "type" : "VEC2", "max" : [0, 0], "min" : [0, 0]}, {"bufferView" : 0, "byteOffset" : 140592, "componentType" : 5123, "count" : 6081, "type" : "SCALAR", "max" : [2078], "min" : [0]}, {"bufferView" : 5, "byteOffset" : 0, "componentType" : 5126, "count" : 2079, "type" : "VEC3", "max" : [0.13720703125, -0.752906799316406, 0.023529052734375], "min" : [-0.13330078125, -1.55862236022949, -0.150146484375]}, {"bufferView" : 5, "byteOffset" : 12, "componentType" : 5126, "count" : 2079, "type" : "VEC3", "max" : [0.999996602535248, 1.00000441074371, 0.999937176704407], "min" : [-0.999651432037354, -1.00000441074371, -0.999770164489746]}, {"bufferView" : 5, "byteOffset" : 24, "componentType" : 5126, "count" : 2079, "type" : "VEC2", "max" : [0.998099982738495, 0.998399972915649], "min" : [-0.163200005888939, 0.000500023365020752]}, {"bufferView" : 0, "byteOffset" : 152756, "componentType" : 5123, "count" : 84, "type" : "SCALAR", "max" : [51], "min" : [0]}, {"bufferView" : 6, "byteOffset" : 0, "componentType" : 5126, "count" : 52, "type" : "VEC3", "max" : [0.844923317432404, 0.5, 0.544805467128754], "min" : [-0.844923317432404, -0.544805526733398, -0.544805467128754]}, {"bufferView" : 6, "byteOffset" : 12, "componentType" : 5126, "count" : 52, "type" : "VEC3", "max" : [1.00000441074371, 1.00000441074371, 1.00000441074371], "min" : [-1.00000441074371, -1.00000441074371, -1.00000441074371]}, {"bufferView" : 6, "byteOffset" : 24, "componentType" : 5126, "count" : 52, "type" : "VEC2", "max" : [0.875, 1], "min" : [0.125, 0]}, {"bufferView" : 0, "byteOffset" : 152924, "componentType" : 5123, "count" : 15456, "type" : "SCALAR", "max" : [8492], "min" : [0]}, {"bufferView" : 7, "byteOffset" : 0, "componentType" : 5126, "count" : 8493, "type" : "VEC3", "max" : [20.2387046813965, 0.869033813476563, 10.1128387451172], "min" : [18.3529014587402, -1.06581410364015E-14, -8.53085041046143]}, {"bufferView" : 7, "byteOffset" : 12, "componentType" : 5126, "count" : 8493, "type" : "VEC3", "max" : [1.00000441074371, 1.00000441074371, 1.00000441074371], "min" : [-1.00000441074371, -1.00000441074371, -1.00000441074371]}, {"bufferView" : 7, "byteOffset" : 24, "componentType" : 5126, "count" : 8493, "type" : "VEC2", "max" : [0, 0], "min" : [0, 0]}], "asset" : {"generator" : "Aspose.3D 20.2.1", "version" : "2.0"}, "buffers" : [{"uri" : "buffer.bin", "byteLength" : 1765852}], "bufferViews" : [{"buffer" : 0, "byteOffset" : 0, "byteLength" : 183836, "target" : 34963}, {"buffer" : 0, "byteOffset" : 183840, "byteLength" : 335232, "byteStride" : 32, "target" : 34962}, {"buffer" : 0, "byteOffset" : 519076, "byteLength" : 331872, "byteStride" : 32, "target" : 34962}, {"buffer" : 0, "byteOffset" : 850952, "byteLength" : 768, "byteStride" : 32, "target" : 34962}, {"buffer" : 0, "byteOffset" : 851724, "byteLength" : 574144, "byteStride" : 32, "target" : 34962}, {"buffer" : 0, "byteOffset" : 1425872, "byteLength" : 66528, "byteStride" : 32, "target" : 34962}, {"buffer" : 0, "byteOffset" : 1492404, "byteLength" : 1664, "byteStride" : 32, "target" : 34962}, {"buffer" : 0, "byteOffset" : 1494072, "byteLength" : 271776, "byteStride" : 32, "target" : 34962}], "materials" : [{"pbrMetallicRoughness" : {"baseColorFactor" : [0.694118022918701, 0.105881996452808, 0.345097988843918, 1], "metallicFactor" : 0, "roughnessFactor" : 1}, "emissiveFactor" : [0, 0, 0], "alphaMode" : "OPAQUE", "doubleSided" : false}, {"pbrMetallicRoughness" : {"baseColorFactor" : [0.694118022918701, 0.105881996452808, 0.345097988843918, 1], "metallicFactor" : 0, "roughnessFactor" : 1}, "emissiveFactor" : [0, 0, 0], "alphaMode" : "OPAQUE", "doubleSided" : false}, {"pbrMetallicRoughness" : {"baseColorFactor" : [0.5, 0.5, 0.5, 1], "metallicFactor" : 0, "roughnessFactor" : 1}, "emissiveFactor" : [0, 0, 0], "alphaMode" : "OPAQUE", "doubleSided" : false}, {"pbrMetallicRoughness" : {"baseColorFactor" : [0.345097988843918, 0.564706027507782, 0.882353007793427, 1], "metallicFactor" : 0, "roughnessFactor" : 1}, "emissiveFactor" : [0, 0, 0], "alphaMode" : "OPAQUE", "doubleSided" : false}, {"pbrMetallicRoughness" : {"baseColorFactor" : [0.600000023841858, 0.89410001039505, 0.600000023841858, 1], "metallicFactor" : 0, "roughnessFactor" : 1}, "emissiveFactor" : [0, 0, 0], "alphaMode" : "OPAQUE", "doubleSided" : false}, {"pbrMetallicRoughness" : {"baseColorFactor" : [0.094170406460762, 0.094170406460762, 0.094170406460762, 1], "metallicFactor" : 0, "roughnessFactor" : 1}, "emissiveFactor" : [0, 0, 0], "alphaMode" : "OPAQUE", "doubleSided" : false}, {"pbrMetallicRoughness" : {"baseColorFactor" : [0.694118022918701, 0.105881996452808, 0.345097988843918, 1], "metallicFactor" : 0, "roughnessFactor" : 1}, "emissiveFactor" : [0, 0, 0], "alphaMode" : "OPAQUE", "doubleSided" : false}], "meshes" : [{"primitives" : [{"attributes" : {"POSITION" : 1, "NORMAL" : 2, "TEXCOORD_0" : 3}, "indices" : 0, "material" : 0, "mode" : 4}]}, {"primitives" : [{"attributes" : {"POSITION" : 5, "NORMAL" : 6, "TEXCOORD_0" : 7}, "indices" : 4, "material" : 1, "mode" : 4}]}, {"primitives" : [{"attributes" : {"POSITION" : 9, "NORMAL" : 10, "TEXCOORD_0" : 11}, "indices" : 8, "material" : 2, "mode" : 4}]}, {"primitives" : [{"attributes" : {"POSITION" : 13, "NORMAL" : 14, "TEXCOORD_0" : 15}, "indices" : 12, "material" : 3, "mode" : 4}]}, {"primitives" : [{"attributes" : {"POSITION" : 17, "NORMAL" : 18, "TEXCOORD_0" : 19}, "indices" : 16, "material" : 4, "mode" : 4}]}, {"primitives" : [{"attributes" : {"POSITION" : 21, "NORMAL" : 22, "TEXCOORD_0" : 23}, "indices" : 20, "material" : 5, "mode" : 4}]}, {"primitives" : [{"attributes" : {"POSITION" : 25, "NORMAL" : 26, "TEXCOORD_0" : 27}, "indices" : 24, "material" : 6, "mode" : 4}]}], "nodes" : [{"matrix" : [0.0517369918525219, 0, 0, 0, 0, 0.0517369918525219, 0, 0, 0, 0, 0.0517369918525219, 0, 0, 0.292279809713364, -0.243534803390503, 1], "mesh" : 0, "name" : "caja_pantene_escena_01:polySurface29"}, {"matrix" : [0.0517369918525219, 0, 0, 0, 0, 0.0517369918525219, 0, 0, 0, 0, 0.0517369918525219, 0, 0.370833784341812, 0.292279809713364, 0, 1], "mesh" : 1, "name" : "caja_pantene_escena_01:polySurface12"}, {"matrix" : [1, 0, 0, 0, 0, 1, 0, 0, 0, 0, 1, 0, 0, -0.0378536097705364, 0, 1], "mesh" : 2, "name" : "caja_pantene_escena_01:polySurface53"}, {"matrix" : [1, 0, 0, 0, 0, 1, 0, 0, 0, 0, 1, 0, 0, 0, 0.292785793542862, 1], "mesh" : 3, "name" : "caja_pantene_escena_01:de_la_natu"}, {"mesh" : 4, "name" : "caja_pantene_escena_01:obj:Box009"}, {"mesh" : 5, "name" : "caja_pantene_escena_01:polySurface52"}, {"matrix" : [0.0517369918525219, 0, 0, 0, 0, 0.0517369918525219, 0, 0, 0, 0, 0.0517369918525219, 0, -0.302721202373505, 0.292279809713364, 0, 1], "mesh" : 6, "name" : "caja_pantene_escena_01:polySurface51"}, {"children" : [0, 1, 2, 3, 4, 5, 6], "matrix" : [19.3285293579102, 0, 0, 0, 0, 19.3285293579102, 0, 0, 0, 0, 19.3285293579102, 0, 0, 9.81111907958984, 0, 1], "name" : "caja_pantene_escena_01:pCube1"}, {"children" : [7], "name" : "shampoo_04"}], "scene" : 0, "scenes" : [{"nodes" : [8]}]}