{"asset":{"version":"2.0","generator":"babylon.js glTF exporter for Maya 2018 v20200312.5"},"scene":0,"scenes":[{"nodes":[0,1,2]}],"nodes":[{"name":"Bottle_of_coke:Mesh"},{"mesh":0,"translation":[-0.00432444829,0.0151244383,-0.05392192],"name":"Mesh"},{"mesh":1,"translation":[-0.00432444829,0.0151244383,0.0177338831],"name":"Mesh1"}],"meshes":[{"primitives":[{"attributes":{"POSITION":1,"TANGENT":2,"NORMAL":3},"indices":0,"material":0},{"attributes":{"POSITION":5,"TANGENT":6,"NORMAL":7},"indices":4,"material":1}],"name":"Mesh"},{"primitives":[{"attributes":{"POSITION":9,"TANGENT":10,"NORMAL":11},"indices":8,"material":0},{"attributes":{"POSITION":13,"TANGENT":14,"NORMAL":15},"indices":12,"material":1}],"name":"Mesh1"}],"accessors":[{"bufferView":0,"componentType":5123,"count":3012,"type":"SCALAR","name":"accessorIndices"},{"bufferView":1,"componentType":5126,"count":780,"max":[0.00427642,0.01849635,0.04241497],"min":[-0.00426239,0.0115650492,0.0338686481],"type":"VEC3","name":"accessorPositions"},{"bufferView":2,"componentType":5126,"count":780,"type":"VEC4","name":"accessorTangents"},{"bufferView":1,"byteOffset":9360,"componentType":5126,"count":780,"type":"VEC3","name":"accessorNormals"},{"bufferView":0,"byteOffset":6024,"componentType":5123,"count":63006,"type":"SCALAR","name":"accessorIndices"},{"bufferView":1,"byteOffset":18720,"componentType":5126,"count":11717,"max":[0.00427642,0.0296159089,0.04239617],"min":[-0.00426239,-4.834E-05,0.03393214],"type":"VEC3","name":"accessorPositions"},{"bufferView":2,"byteOffset":12480,"componentType":5126,"count":11717,"type":"VEC4","name":"accessorTangents"},{"bufferView":1,"byteOffset":159324,"componentType":5126,"count":11717,"type":"VEC3","name":"accessorNormals"},{"bufferView":0,"byteOffset":132036,"componentType":5123,"count":3012,"type":"SCALAR","name":"accessorIndices"},{"bufferView":1,"byteOffset":299928,"componentType":5126,"count":780,"max":[0.00427642,0.01849635,0.04241497],"min":[-0.00426239,0.0115650492,0.0338686481],"type":"VEC3","name":"accessorPositions"},{"bufferView":2,"byteOffset":199952,"componentType":5126,"count":780,"type":"VEC4","name":"accessorTangents"},{"bufferView":1,"byteOffset":309288,"componentType":5126,"count":780,"type":"VEC3","name":"accessorNormals"},{"bufferView":0,"byteOffset":138060,"componentType":5123,"count":63006,"type":"SCALAR","name":"accessorIndices"},{"bufferView":1,"byteOffset":318648,"componentType":5126,"count":11717,"max":[0.00427642,0.0296159089,0.04239617],"min":[-0.00426239,-4.834E-05,0.03393214],"type":"VEC3","name":"accessorPositions"},{"bufferView":2,"byteOffset":212432,"componentType":5126,"count":11717,"type":"VEC4","name":"accessorTangents"},{"bufferView":1,"byteOffset":459252,"componentType":5126,"count":11717,"type":"VEC3","name":"accessorNormals"},{"bufferView":3,"componentType":5126,"count":3,"max":[3.70833325],"min":[0.0],"type":"SCALAR","name":"accessorAnimationInput"},{"bufferView":4,"componentType":5126,"count":3,"type":"VEC3","name":"accessorAnimationPositions"},{"bufferView":3,"byteOffset":12,"componentType":5126,"count":4,"max":[3.70833325],"min":[0.0],"type":"SCALAR","name":"accessorAnimationInput"},{"bufferView":4,"byteOffset":36,"componentType":5126,"count":4,"type":"VEC3","name":"accessorAnimationPositions"}],"bufferViews":[{"buffer":0,"byteLength":264072,"name":"bufferViewScalar"},{"buffer":0,"byteOffset":264072,"byteLength":599856,"byteStride":12,"name":"bufferViewFloatVec3"},{"buffer":0,"byteOffset":863928,"byteLength":399904,"byteStride":16,"name":"bufferViewFloatVec4"},{"buffer":0,"byteOffset":1263832,"byteLength":28,"name":"bufferViewAnimationFloatScalar"},{"buffer":0,"byteOffset":1263860,"byteLength":84,"name":"bufferViewAnimationFloatVec3"}],"buffers":[{"uri":"test_coca_01.bin","byteLength":1263944}],"materials":[{"pbrMetallicRoughness":{"baseColorTexture":{"index":0},"metallicFactor":0.0,"roughnessFactor":0.450053632},"name":"bottela_mat"},{"pbrMetallicRoughness":{"baseColorFactor":[0.5,0.5,0.5,1.0],"metallicFactor":0.0,"roughnessFactor":0.450053632},"name":"lambert3"}],"textures":[{"sampler":0,"source":0,"name":"coca cola logo texture.jpg"}],"images":[{"uri":"coca cola logo texture.jpg"}],"samplers":[{"magFilter":9729,"minFilter":9987}],"animations":[{"channels":[{"sampler":0,"target":{"node":1,"path":"translation"}},{"sampler":1,"target":{"node":2,"path":"translation"}}],"samplers":[{"input":16,"interpolation":0,"output":17},{"input":18,"interpolation":0,"output":19}],"name":"All Animations"}]}